<svg width="122.88" height="122.88" xmlns="http://www.w3.org/2000/svg" data-name="Layer 1">
 <title>compass</title>

 <g>
  <title>Layer 1</title>
  <path transform="rotate(74 60.4576 62.46)" id="svg_1" d="m60.44,1a61.46,61.46 0 1 1 -43.44,18a61.21,61.21 0 0 1 43.44,-18zm15.56,57.42l-7.23,4.11a7.56,7.56 0 0 1 -0.25,1.57a8,8 0 0 1 -9.75,5.63a8.19,8.19 0 0 1 -1.58,-0.61l-7.66,4.36l30.9,22.75l-4.43,-37.81zm-30.45,8.46l7.37,-4.19a7.86,7.86 0 0 1 0.24,-2.69a8,8 0 0 1 9.75,-5.63a8.28,8.28 0 0 1 2.55,1.2l6.54,-3.75l-30.86,-22.75l4.41,37.81zm48.81,-38.36a48,48 0 1 0 14,33.92a47.82,47.82 0 0 0 -14,-33.92z"/>
 </g>
</svg>